<svg xmlns="http://www.w3.org/2000/svg" viewBox="0 0 720 180" role="img" aria-labelledby="title desc">
  <title id="title">JINVERSE</title>
  <desc id="desc">JINVERSE Jain-inspired logo with gold meditation emblem, ivory wordmark, tagline, and Know Explore Live motto</desc>
  <rect width="720" height="180" rx="18" fill="#1A120B"/>
  <g fill="none" stroke="#C9A24A" stroke-width="3.5" stroke-linecap="round" stroke-linejoin="round">
    <circle cx="90" cy="90" r="76"/>
    <circle cx="90" cy="44" r="11" fill="#C9A24A" stroke="none"/>
    <circle cx="90" cy="68" r="16"/>
    <path d="M90 84 C65 84 48 101 48 120 C48 137 64 147 90 147 C116 147 132 137 132 120 C132 101 115 84 90 84Z"/>
    <path d="M90 85V140"/>
    <path d="M48 120 C35 126 27 137 27 147"/>
    <path d="M132 120 C145 126 153 137 153 147"/>
  </g>
  <text x="190" y="82" fill="#F1E6D2" font-family="Georgia, 'Times New Roman', serif" font-size="58" font-weight="600" letter-spacing="6">JINVERSE</text>
  <g stroke="#A07A3A" stroke-width="1.5" fill="#A07A3A">
    <path d="M194 101H382"/>
    <path d="M398 101H650"/>
    <path d="M390 93L398 101L390 109L382 101Z"/>
  </g>
  <text x="194" y="126" fill="#A07A3A" font-family="Arial, Helvetica, sans-serif" font-size="11" letter-spacing="3.1">EXPLORE JAINISM · DISCOVER THE UNIVERSE WITHIN</text>
  <text x="305" y="153" fill="#A07A3A" font-family="Arial, Helvetica, sans-serif" font-size="12" letter-spacing="4.5">KNOW  |  EXPLORE  |  LIVE</text>
</svg>